<svg xmlns="http://www.w3.org/2000/svg" viewBox="0 0 960 540">
  <defs>
    <linearGradient id="water" x1="0" x2="0" y1="0" y2="1">
      <stop offset="0" stop-color="#0ea5e9"/>
      <stop offset="1" stop-color="#0369a1"/>
    </linearGradient>
    <linearGradient id="sky" x1="0" x2="0" y1="0" y2="1">
      <stop offset="0" stop-color="#bae6fd"/>
      <stop offset="1" stop-color="#e0f2fe"/>
    </linearGradient>
  </defs>
  <rect width="960" height="320" fill="url(#sky)"/>
  <rect y="320" width="960" height="220" fill="url(#water)"/>
  <g transform="translate(120 320)">
    <rect x="-20" y="60" width="780" height="40" fill="#1e293b" opacity="0.4"/>
    <g transform="translate(0)">
      <rect width="200" height="160" rx="16" fill="#facc15" stroke="#f59e0b" stroke-width="8"/>
      <rect x="36" y="40" width="128" height="24" fill="#fcd34d" opacity="0.65"/>
    </g>
    <g transform="translate(260 -40)">
      <rect width="200" height="200" rx="16" fill="#facc15" stroke="#f59e0b" stroke-width="8"/>
      <rect x="36" y="48" width="128" height="28" fill="#fcd34d" opacity="0.65"/>
    </g>
    <g transform="translate(520 -10)">
      <rect width="200" height="170" rx="16" fill="#facc15" stroke="#f59e0b" stroke-width="8"/>
      <rect x="36" y="44" width="128" height="26" fill="#fcd34d" opacity="0.65"/>
    </g>
  </g>
  <g transform="translate(140 120)">
    <rect x="40" y="240" width="80" height="60" fill="#0f172a" opacity="0.2"/>
    <rect x="380" y="200" width="80" height="100" fill="#0f172a" opacity="0.2"/>
    <rect x="640" y="220" width="80" height="80" fill="#0f172a" opacity="0.2"/>
  </g>
  <text x="140" y="116" font-family="Helvetica, Arial, sans-serif" font-size="26" fill="#1e293b" font-weight="600">
    MOSE gates emerging during acqua alta
  </text>
  <text x="140" y="154" font-family="Helvetica, Arial, sans-serif" font-size="18" fill="#1f2937">
    Hollow steel caissons rotate upward as compressed air drains water from their chambers.
  </text>
</svg>
